<svg xmlns="http://www.w3.org/2000/svg"  viewBox="0 0 30 30" width="30px" height="30px"><path fill="#f5c276" d="M6,15c-2.76,0-5-3-5-3H0c0,8.158,7,10,7,10l3,0.833L7,15H6z M1.108,13.618 C1.959,14.457,3.343,15.56,5,15.897L7,16v3c-0.875,0-2-0.45-2-0.45C3.618,17.9,1.525,16.615,1.108,13.618z"/><path fill="#ffeea3" d="M12.5 9.5A1 1 0 1 0 12.5 11.5A1 1 0 1 0 12.5 9.5Z"/><path fill="#f5c276" d="M12.5,10c0.276,0,0.5,0.224,0.5,0.5S12.776,11,12.5,11S12,10.776,12,10.5S12.224,10,12.5,10 M12.5,9C11.672,9,11,9.672,11,10.5s0.672,1.5,1.5,1.5s1.5-0.672,1.5-1.5S13.328,9,12.5,9L12.5,9z"/><path fill="#ffeea3" d="M7.966,15.5c0.848-1.1,2.592-3,4.534-3s3.687,1.9,4.534,3H7.966z"/><path fill="#f5c276" d="M12.5,13c1.273,0,2.545,1.008,3.464,2H9.031C9.948,14.008,11.22,13,12.5,13 M12.5,12 C9.462,12,7,16,7,16h11C18,16,15.538,12,12.5,12L12.5,12z"/><path fill="#ffeea3" d="M8.941,26.5c0.432-0.312,1.174-0.671,2.198-0.863l0.316-0.06l0.076-0.313 c0.11-0.449,0.508-0.764,0.968-0.764s0.857,0.314,0.968,0.764l0.076,0.313l0.316,0.06c1.024,0.192,1.767,0.552,2.198,0.863H8.941z"/><path fill="#f5c276" d="M12.5,25c0.229,0,0.427,0.157,0.482,0.382L13.132,26h-1.265l0.151-0.618 C12.073,25.157,12.271,25,12.5,25 M12.5,24c-0.706,0-1.293,0.489-1.453,1.145C9.279,25.477,8,26.342,8,27h9 c0-0.658-1.279-1.523-3.047-1.855C13.793,24.489,13.206,24,12.5,24L12.5,24z"/><g><path fill="#c2e8ff" d="M28.443,12.5c-0.312-1.291-1.851-1.713-3.345-2.122C22.838,9.759,20.5,9.118,20.5,6 c0.007-0.245,0.152-2.5,2.958-2.5c1.036,0,1.824,0.269,2.345,0.799C26.499,5.008,26.5,5.98,26.5,5.99c0,0.262-0.074,1.51-1.5,1.51 c-0.476,0-0.842-0.128-1.089-0.38C23.492,6.693,23.5,6.02,23.5,6.013l0.009-0.488L23.02,5.5c-0.751,0-1.52,0.47-1.52,1.5 c0,1.837,1.794,2.455,3.529,3.054c1.866,0.644,3.16,1.186,3.422,2.446H28.443z"/><path fill="#8bb7f0" d="M23.458,4c2.35,0,2.54,1.525,2.542,2.01c0,0.005-0.022,0.492-0.288,0.762 C25.656,6.828,25.486,7,25,7c-0.503,0-0.673-0.171-0.729-0.227C24.047,6.548,23.999,6.152,24,6.031l0.031-0.989l-0.988-0.041 L23.005,5h-0.021c-0.882,0-1.774,0.55-1.952,1.607C21.011,6.423,21,6.227,21,6.019C21.004,5.812,21.106,4,23.458,4 M23.458,3 C20.056,3,20,6,20,6c0,6.021,8,3.875,8,7h1c0-3.979-7-2.854-7-6c0-0.964,0.857-1,0.984-1C22.995,6,23,6,23,6s-0.063,2,2,2 c2.021,0,2-2,2-2S27.056,3,23.458,3L23.458,3z"/></g><g><path fill="#ffeea3" d="M12.546,23.5c-0.282-0.003-6.773-0.156-7.037-8h11.614c1.304,0,7.791-0.098,10.067-2h1.813 c-7.599,9.883-16.088,10-16.455,10H12.546z"/><path fill="#f5c276" d="M27.968,14c-7.274,8.893-15.074,9-15.417,9c-0.256-0.004-6.003-0.165-6.515-7l10.953,0L17.124,16 c1.835,0,7.787-0.15,10.241-2H27.968 M30,13h-3c-2.006,1.929-8.871,2-9.876,2C17.043,15,17,15,17,15H5c0,8.958,7.542,9,7.542,9 s0.002,0,0.006,0C12.821,24,22.078,23.919,30,13L30,13z"/></g></svg>